<?xml version="1.0" standalone="no"?>
<!DOCTYPE svg PUBLIC "-//W3C//DTD SVG 20010904//EN"
 "http://www.w3.org/TR/2001/REC-SVG-20010904/DTD/svg10.dtd">
<svg version="1.0" xmlns="http://www.w3.org/2000/svg"
 width="1078.000000pt" height="828.000000pt" viewBox="0 0 1078.000000 828.000000"
 preserveAspectRatio="xMidYMid meet">

<g transform="translate(0.000000,828.000000) scale(0.100000,-0.100000)"
fill="#000000" stroke="none">
<path d="M3950 7495 c-173 -47 -331 -89 -350 -94 -19 -6 -87 -24 -150 -41
-192 -50 -234 -62 -256 -70 -16 -6 -26 -29 -44 -92 -40 -148 -52 -192 -65
-238 -8 -25 -39 -142 -70 -260 -31 -118 -75 -279 -96 -358 -21 -78 -39 -148
-39 -155 0 -7 225 -237 500 -512 275 -275 500 -506 500 -513 0 -7 -20 -37 -45
-67 -72 -88 -97 -205 -70 -320 15 -65 15 -70 -2 -82 -9 -7 -26 -13 -37 -13
-40 -1 -191 -70 -274 -126 -121 -82 -181 -154 -257 -309 -110 -223 -183 -477
-269 -935 -46 -244 -121 -786 -111 -798 8 -9 550 60 745 94 553 98 959 226
1141 360 123 90 243 272 287 436 17 60 19 63 47 62 17 -1 54 -6 84 -13 97 -20
246 24 310 93 14 14 32 26 40 26 9 0 180 -164 381 -365 200 -200 376 -369 390
-374 14 -5 99 -24 190 -41 91 -17 255 -49 365 -70 110 -22 308 -60 440 -85
243 -45 493 -93 642 -123 45 -9 85 -13 89 -9 6 6 -6 88 -26 172 -10 43 -121
616 -146 755 -8 47 -19 103 -24 125 -5 22 -25 126 -45 230 -20 105 -40 208
-45 230 -5 22 -17 81 -26 130 l-16 90 -484 485 -484 485 42 62 c24 33 68 96
97 139 30 44 72 104 93 134 21 30 51 73 67 95 77 106 344 492 458 663 39 59
81 119 92 134 12 14 63 89 114 165 51 76 118 174 148 218 73 108 89 145 89
211 0 99 -65 217 -187 341 -58 60 -90 82 -168 120 -80 38 -108 47 -168 51 -91
6 -101 1 -332 -156 -93 -64 -237 -161 -320 -217 -165 -112 -434 -296 -535
-366 -36 -25 -123 -86 -195 -136 -71 -49 -199 -138 -283 -196 -84 -59 -156
-107 -160 -107 -4 0 -259 252 -567 561 -516 517 -665 660 -683 658 -4 0 -149
-38 -322 -84z m282 -146 c40 -21 638 -633 638 -653 0 -16 -25 -112 -105 -406
-8 -30 -39 -144 -69 -253 -30 -110 -58 -203 -63 -208 -5 -5 -45 -18 -88 -30
-44 -12 -102 -27 -130 -35 -150 -40 -281 -75 -370 -98 -54 -15 -133 -36 -175
-48 -41 -11 -87 -23 -101 -25 -24 -4 -63 31 -348 315 -177 176 -321 326 -321
333 0 6 22 93 49 193 27 99 79 294 116 431 37 138 69 252 71 254 3 4 91 29
212 62 172 46 229 61 437 118 121 32 221 60 223 60 2 1 12 -4 24 -10z m3194
-33 c104 -49 244 -214 244 -288 0 -14 -13 -43 -28 -64 -16 -21 -89 -129 -163
-239 -75 -110 -160 -234 -190 -277 -30 -42 -92 -133 -139 -202 -47 -69 -116
-171 -155 -226 -38 -54 -126 -181 -195 -280 -69 -100 -141 -203 -161 -228 -20
-26 -38 -52 -40 -57 -2 -6 -19 -31 -37 -55 -18 -25 -69 -94 -112 -155 -189
-263 -272 -375 -412 -557 -185 -240 -397 -380 -627 -413 l-45 -6 -388 388
-388 388 0 45 c0 137 104 342 248 488 98 100 214 190 593 461 96 69 197 141
224 161 122 90 542 381 1030 715 50 34 155 106 235 161 80 54 199 136 265 181
136 93 157 98 241 59z m-2229 -928 c79 -79 143 -148 143 -155 0 -7 -21 -27
-47 -44 -27 -18 -128 -93 -226 -166 -98 -73 -182 -133 -188 -133 -17 0 -16 2
56 265 26 94 57 212 70 262 24 95 31 113 43 113 4 0 71 -64 149 -142z m-652
-854 c-47 -73 -98 -178 -120 -242 -19 -61 -14 -60 -120 -21 -52 18 -73 21
-156 16 l-96 -6 -67 68 c-38 38 -64 71 -59 74 5 3 103 31 219 62 115 31 254
69 309 84 55 15 105 26 112 23 8 -3 1 -22 -22 -58z m-272 -465 c50 -25 1054
-1020 1098 -1088 59 -91 27 -211 -77 -290 -55 -42 -103 -53 -168 -39 -47 10
-66 27 -583 542 -294 292 -544 544 -555 559 -69 96 -28 222 99 306 58 38 122
42 186 10z m2659 -404 c200 -198 381 -379 403 -403 l38 -43 -559 -560 c-307
-307 -561 -559 -565 -559 -3 0 -151 146 -330 325 -244 246 -324 331 -322 348
0 12 4 48 8 79 8 62 -4 124 -37 190 -10 21 -18 42 -18 47 0 5 24 17 53 27 117
39 316 149 357 199 7 8 21 15 32 15 11 0 120 -101 279 -261 l261 -262 71 72
72 71 -269 269 -269 270 34 44 c64 84 235 312 303 405 38 51 74 92 81 90 7 -2
177 -165 377 -363z m-2549 -593 l438 -439 -6 -64 c-16 -149 -84 -298 -182
-396 -87 -87 -238 -160 -463 -223 -186 -52 -410 -104 -585 -134 -338 -60 -397
-68 -469 -70 l-71 -1 3 50 c12 196 130 804 204 1050 104 350 189 484 360 575
105 56 172 75 318 89 8 0 212 -196 453 -437z m3120 -192 c28 -139 63 -324 72
-385 l6 -40 -281 -280 c-154 -154 -289 -281 -299 -283 -10 -2 -104 13 -207 33
-104 20 -225 42 -268 50 -43 8 -81 17 -84 20 -4 3 226 235 508 515 283 280
518 506 522 502 3 -4 18 -63 31 -132z m139 -716 c7 -27 61 -308 71 -366 8 -54
3 -54 -223 -10 -117 23 -217 45 -222 48 -12 8 342 366 357 361 5 -2 13 -17 17
-33z"/>
<path d="M3855 6961 c-91 -26 -152 -60 -215 -121 -97 -94 -145 -191 -156 -319
-21 -238 111 -435 356 -532 23 -9 76 -14 155 -14 l120 0 88 43 c153 75 248
198 283 369 73 351 -282 675 -631 574z m270 -215 c66 -33 128 -100 149 -163
38 -111 10 -246 -66 -320 -66 -64 -120 -87 -209 -91 -69 -4 -83 -1 -142 27
-109 52 -167 137 -175 256 -9 150 84 277 233 316 55 15 151 3 210 -25z"/>
<path d="M2457 2152 c-52 -13 -94 -57 -106 -111 -22 -105 40 -191 141 -193 53
-1 96 20 132 62 51 62 27 188 -43 224 -35 18 -89 26 -124 18z"/>
<path d="M7528 2049 c-10 -5 -18 -16 -18 -23 0 -8 -12 -40 -26 -72 -14 -33
-71 -171 -126 -309 -54 -137 -108 -272 -119 -300 -11 -27 -24 -59 -29 -70 -4
-11 -18 -45 -30 -75 -11 -30 -25 -64 -29 -75 -5 -11 -15 -38 -24 -60 -15 -41
-72 -184 -88 -220 -4 -11 -29 -71 -54 -132 -60 -143 -92 -188 -158 -219 -29
-13 -61 -24 -72 -24 -33 0 -47 -15 -43 -46 l3 -29 280 0 280 0 0 30 c0 29 -2
30 -69 41 -80 13 -116 43 -116 96 0 48 29 155 61 227 16 35 29 70 29 77 0 7 9
18 19 24 23 12 589 14 608 2 14 -9 79 -164 99 -237 31 -113 8 -166 -77 -179
-102 -16 -100 -15 -97 -49 l3 -32 395 0 395 0 3 23 c5 31 -15 52 -48 52 -47 0
-113 29 -153 68 -36 34 -104 153 -122 212 -4 14 -25 66 -47 115 -53 121 -52
120 -86 205 -43 108 -121 302 -132 325 -10 22 -46 109 -150 365 -39 96 -81
199 -93 228 -14 34 -30 57 -45 63 -31 12 -102 11 -124 -2z m13 -430 c10 -24
29 -75 44 -114 14 -38 32 -86 40 -105 8 -19 29 -75 49 -125 19 -49 46 -120 61
-158 44 -112 59 -105 -227 -110 -174 -3 -251 -1 -257 7 -6 7 14 69 56 171 35
88 86 216 112 285 72 186 80 202 93 198 7 -3 20 -24 29 -49z"/>
<path d="M224 2016 c-13 -35 1 -49 59 -62 77 -18 108 -36 151 -86 38 -44 115
-193 165 -320 16 -40 52 -129 80 -198 70 -169 105 -255 142 -347 17 -43 49
-118 70 -168 21 -49 57 -137 80 -195 24 -58 57 -141 75 -185 l32 -80 78 0 77
0 44 110 c24 61 47 119 52 130 5 11 19 45 31 75 11 30 25 64 30 75 4 11 29 74
55 140 26 66 62 156 80 200 18 44 81 202 140 350 130 329 159 392 193 428 34
37 89 65 141 73 39 6 41 9 41 40 l0 34 -295 0 c-317 0 -321 -1 -295 -49 8 -16
20 -21 54 -21 98 0 142 -40 133 -119 -9 -74 -45 -176 -218 -621 -39 -102 -79
-205 -89 -230 -72 -185 -96 -240 -103 -237 -9 3 -26 48 -132 337 -31 85 -64
178 -75 205 -41 110 -150 413 -163 455 -47 144 -22 191 107 206 56 7 56 7 56
40 l0 34 -395 0 c-335 0 -396 -2 -401 -14z"/>
<path d="M4522 1706 c-56 -82 -125 -136 -237 -186 -58 -26 -65 -32 -65 -58 0
-43 17 -52 92 -52 l68 0 0 -414 c0 -442 2 -458 51 -528 13 -18 49 -43 88 -62
59 -28 76 -31 156 -31 122 0 177 18 237 75 52 50 55 57 34 85 -13 18 -14 17
-47 -7 -69 -53 -164 -43 -201 20 -10 16 -22 57 -27 93 -12 71 -14 446 -4 641
l6 127 116 3 116 3 0 50 0 50 -117 3 -118 3 0 113 c0 63 -3 121 -6 130 -4 11
-19 16 -48 16 -41 0 -43 -2 -94 -74z"/>
<path d="M10172 1774 c-7 -3 -21 -22 -31 -42 -34 -65 -121 -145 -200 -185 -40
-20 -80 -37 -88 -37 -19 0 -37 -44 -29 -74 6 -24 11 -25 79 -28 l72 -3 5 -425
c6 -480 4 -466 83 -536 61 -54 150 -79 247 -71 104 9 149 26 202 77 52 50 55
57 35 84 -12 17 -15 17 -51 -8 -76 -52 -152 -46 -192 13 -37 56 -45 161 -42
536 l3 330 120 3 c80 2 122 7 127 15 12 19 9 75 -4 84 -7 4 -65 10 -128 13
l-115 5 -5 125 -5 125 -35 2 c-19 1 -41 -1 -48 -3z"/>
<path d="M3783 1526 c-84 -21 -160 -81 -236 -185 -18 -25 -37 -44 -42 -43 -6
0 -17 51 -26 112 -9 61 -19 113 -23 117 -6 6 -152 -17 -333 -53 -40 -8 -75
-14 -78 -14 -10 0 -5 -46 7 -58 7 -7 28 -12 47 -12 57 0 96 -30 117 -92 17
-48 19 -88 19 -406 l0 -354 -37 -34 c-28 -25 -47 -34 -74 -34 -45 0 -74 -15
-74 -39 0 -40 15 -41 366 -39 l339 3 0 30 c0 29 -1 30 -70 41 -145 22 -150 33
-150 309 1 210 11 291 49 396 35 97 86 159 131 159 12 0 49 -18 81 -40 48 -32
68 -40 104 -40 81 1 128 47 137 133 5 47 2 56 -22 85 -15 18 -40 39 -55 47
-40 21 -118 26 -177 11z"/>
<path d="M9390 1526 c-25 -7 -61 -21 -80 -30 -38 -20 -150 -124 -150 -141 -1
-20 -45 -64 -57 -57 -6 4 -17 54 -24 112 -7 58 -16 109 -19 113 -9 10 -116 -5
-310 -44 -30 -6 -65 -13 -78 -15 -19 -4 -23 -10 -20 -32 3 -27 14 -33 81 -47
47 -10 84 -59 97 -132 18 -95 19 -656 1 -706 -15 -45 -61 -77 -109 -77 -43 0
-72 -16 -72 -39 0 -40 15 -41 366 -39 l339 3 0 30 c0 29 -1 30 -70 40 -85 13
-110 28 -135 81 -35 72 -25 403 17 567 33 131 91 217 146 217 12 0 51 -18 87
-40 72 -44 120 -51 170 -25 60 31 88 136 53 195 -35 60 -145 91 -233 66z"/>
<path d="M2455 1508 c-241 -39 -300 -52 -302 -68 -5 -28 14 -41 69 -49 30 -4
65 -15 78 -24 45 -31 50 -76 49 -447 0 -304 -2 -349 -17 -380 -19 -39 -57 -61
-117 -69 -38 -6 -40 -8 -43 -44 l-3 -37 328 2 328 3 0 30 c0 27 -4 30 -50 41
-65 14 -91 31 -113 74 -15 32 -17 82 -20 513 l-3 477 -32 -1 c-18 -1 -86 -10
-152 -21z"/>
<path d="M5134 1506 c-3 -8 -4 -25 -2 -38 2 -18 11 -24 45 -30 62 -10 101 -34
117 -71 10 -24 15 -111 19 -322 6 -309 14 -368 62 -465 27 -53 105 -129 161
-158 79 -40 152 -55 239 -48 134 10 231 53 314 140 19 20 40 36 47 36 6 0 14
-20 18 -45 3 -25 9 -66 12 -91 l7 -47 116 7 c64 4 157 11 206 14 l90 7 0 30
c0 29 -2 30 -60 37 -68 9 -104 31 -119 74 -6 17 -12 226 -16 504 l-5 475 -230
0 -230 0 0 -34 c0 -33 2 -35 54 -47 81 -18 107 -50 120 -147 15 -110 14 -322
-3 -459 -28 -221 -115 -328 -268 -328 -104 0 -170 52 -202 159 -27 93 -39 298
-32 575 5 188 3 262 -5 272 -17 21 -447 21 -455 0z"/>
</g>
</svg>
